<?xml version="1.0" ?><!DOCTYPE svg  PUBLIC '-//W3C//DTD SVG 1.1//EN'  'http://www.w3.org/Graphics/SVG/1.1/DTD/svg11.dtd'><svg height="512px" style="enable-background:new 0 0 512 512;" version="1.1" viewBox="0 0 512 512" width="512px" xml:space="preserve" xmlns="http://www.w3.org/2000/svg" xmlns:xlink="http://www.w3.org/1999/xlink"><g id="comp_x5F_121-facebook"><g><path d="    M485.998,51.363v409.173c0,14.065-11.396,25.36-25.36,25.36H343.38V307.853h59.757l8.935-69.41h-68.795v-44.357    c0-20.125,5.545-33.78,34.397-33.78h36.759V98.184c-6.367-0.821-28.134-2.771-53.599-2.771c-52.981,0-89.33,32.343-89.33,91.794    v51.236h-59.963v69.41h59.963v178.146H51.364c-13.965,0-25.362-11.397-25.362-25.362V51.363c0-13.965,11.397-25.362,25.362-25.362    h409.171C474.603,26.001,485.998,37.398,485.998,51.363z" style="fill:none;stroke:#000000;stroke-width:20;stroke-linecap:round;stroke-linejoin:round;stroke-miterlimit:10;"/></g></g><g id="Layer_1"/></svg>